<svg width="52" height="52" viewBox="0 0 52 52" fill="none" xmlns="http://www.w3.org/2000/svg">
    <g filter="url(#filter0_i_309_3011)">
        <circle cx="25.9016" cy="25.9016" r="24.9016" fill="white" />
    </g>
    <circle cx="25.9016" cy="25.9016" r="24.9016" stroke="#E8E7F1" stroke-width="1.5" />
    <path
        d="M36.4297 16.3374C36.4215 16.3213 36.408 16.3087 36.3915 16.3019C34.4854 15.4136 32.4738 14.7802 30.4072 14.4176C30.3884 14.414 30.369 14.4166 30.3518 14.4249C30.3345 14.4332 30.3203 14.4468 30.3111 14.4638C30.0372 14.9687 29.7885 15.4873 29.5661 16.0177C27.3384 15.6742 25.0724 15.6742 22.8448 16.0177C22.6209 15.486 22.3682 14.9672 22.088 14.4638C22.0784 14.4472 22.0641 14.4339 22.0469 14.4256C22.0298 14.4174 22.0106 14.4146 21.9918 14.4176C19.925 14.7795 17.9133 15.4129 16.0074 16.3019C15.9911 16.3089 15.9773 16.3209 15.968 16.3362C12.1566 22.1171 11.1125 27.7558 11.6247 33.3246C11.6261 33.3383 11.6302 33.3515 11.6368 33.3635C11.6434 33.3755 11.6523 33.386 11.6629 33.3945C13.8823 35.0634 16.3647 36.3373 19.0042 37.1619C19.0228 37.1675 19.0426 37.1673 19.061 37.1612C19.0795 37.155 19.0956 37.1433 19.1073 37.1276C19.6742 36.3441 20.1765 35.5146 20.6092 34.6473C20.6151 34.6354 20.6185 34.6223 20.6191 34.609C20.6197 34.5957 20.6176 34.5824 20.6128 34.57C20.6079 34.5575 20.6006 34.5463 20.5912 34.537C20.5818 34.5277 20.5706 34.5205 20.5582 34.5159C19.7661 34.2081 18.9992 33.837 18.2648 33.4062C18.2515 33.3982 18.2403 33.387 18.2322 33.3736C18.2241 33.3602 18.2194 33.345 18.2185 33.3293C18.2176 33.3136 18.2205 33.2979 18.227 33.2836C18.2334 33.2694 18.2432 33.2569 18.2556 33.2474C18.4101 33.1302 18.562 33.0093 18.711 32.885C18.7241 32.874 18.7399 32.867 18.7567 32.8647C18.7735 32.8624 18.7906 32.865 18.806 32.872C23.6175 35.1021 28.8265 35.1021 33.581 32.872C33.5965 32.8645 33.6138 32.8616 33.6308 32.8637C33.6478 32.8658 33.6639 32.8728 33.6772 32.8838C33.8264 33.0088 33.9787 33.1301 34.1338 33.2474C34.1462 33.2568 34.1561 33.2692 34.1627 33.2834C34.1693 33.2976 34.1723 33.3133 34.1715 33.329C34.1707 33.3447 34.1661 33.3599 34.1581 33.3734C34.1501 33.3868 34.139 33.3981 34.1257 33.4062C33.393 33.8406 32.6254 34.2114 31.8312 34.5147C31.8189 34.5195 31.8077 34.5268 31.7983 34.5363C31.789 34.5458 31.7817 34.5571 31.777 34.5696C31.7723 34.5822 31.7702 34.5955 31.771 34.6089C31.7717 34.6223 31.7752 34.6354 31.7812 34.6473C32.2211 35.5098 32.7227 36.3383 33.2819 37.1262C33.2933 37.1423 33.3093 37.1545 33.3278 37.1609C33.3464 37.1672 33.3664 37.1675 33.3851 37.1617C36.0293 36.34 38.516 35.0659 40.7382 33.3945C40.749 33.3865 40.758 33.3762 40.7646 33.3643C40.7712 33.3525 40.7752 33.3394 40.7764 33.3258C41.3896 26.8876 39.7498 21.2951 36.4297 16.3374ZM21.3277 29.9338C19.8791 29.9338 18.6855 28.5837 18.6855 26.9255C18.6855 25.2674 19.856 23.9172 21.3277 23.9172C22.811 23.9172 23.993 25.2792 23.9699 26.9254C23.9699 28.5837 22.7994 29.9338 21.3277 29.9338ZM31.0967 29.9338C29.6482 29.9338 28.4546 28.5837 28.4546 26.9255C28.4546 25.2674 29.625 23.9172 31.0967 23.9172C32.5801 23.9172 33.7621 25.2792 33.7389 26.9254C33.7389 28.5837 32.5801 29.9338 31.0967 29.9338Z"
        fill="#323256" />
    <defs>
        <filter id="filter0_i_309_3011" x="-5.15242" y="-15.4661" width="56.7056" height="67.0194" filterUnits="userSpaceOnUse" color-interpolation-filters="sRGB">
            <feFlood flood-opacity="0" result="BackgroundImageFix" />
            <feBlend mode="normal" in="SourceGraphic" in2="BackgroundImageFix" result="shape" />
            <feColorMatrix in="SourceAlpha" type="matrix" values="0 0 0 0 0 0 0 0 0 0 0 0 0 0 0 0 0 0 127 0" result="hardAlpha" />
            <feMorphology radius="14.7339" operator="erode" in="SourceAlpha" result="effect1_innerShadow_309_3011" />
            <feOffset dx="-5.40242" dy="-15.7161" />
            <feGaussianBlur stdDeviation="9.82258" />
            <feComposite in2="hardAlpha" operator="arithmetic" k2="-1" k3="1" />
            <feColorMatrix type="matrix" values="0 0 0 0 1 0 0 0 0 1 0 0 0 0 1 0 0 0 1 0" />
            <feBlend mode="normal" in2="shape" result="effect1_innerShadow_309_3011" />
        </filter>
    </defs>
</svg>