<svg width="429" height="279" viewBox="0 0 429 279" fill="none" xmlns="http://www.w3.org/2000/svg">
    <path
        d="M388.873 0.142908C403.869 0.142908 418.864 0.285839 433.859 -2.19047e-05C438.143 -0.142952 439 0.85756 439 5.14547C438.857 95.9062 438.857 186.667 438.857 277.428C437.143 279 435.144 279.143 432.859 278.857C397.442 273.712 364.881 262.134 337.319 238.265C329.607 231.547 322.038 224.686 315.612 216.682C312.327 212.68 308.757 211.251 303.615 210.679C282.908 208.678 262.2 206.534 241.493 204.104C204.648 199.674 168.517 192.241 132.957 182.093C99.2534 172.517 66.5497 160.368 36.9879 141.215C24.7062 133.354 13.8526 124.206 5.14113 112.057C-2.71345 101.195 -1.57097 81.4703 9.42546 71.6081C19.7078 62.3176 31.9895 56.8862 45.2709 53.4559C70.5484 47.0241 96.2543 43.1649 122.103 44.0225C148.095 44.8801 173.515 41.5927 199.221 39.7346C226.212 37.7336 252.918 34.1603 279.766 30.5871C307.329 27.0138 334.32 20.7249 359.883 9.29045C369.166 5.2884 378.734 1.71514 388.873 0.142908Z"
        fill="#F59B92" />
</svg>