<svg width="377" height="108" viewBox="0 0 377 108" fill="none" xmlns="http://www.w3.org/2000/svg">
    <path
        d="M0.1 103.1C0.1 70.1 0.2 37.1 0 4.1C0 0.7 0.7 0 4.1 0C128.1 0.1 252.1 0.1 376.1 0.1C375.8 3.2 373 3.4 371.1 4.2C362.9 7.5 354.3 9.5 345.8 11.5C331.6 14.8 317.4 18 303 20.1C289.9 22.1 276.8 23.9 263.5 24.8C254.2 25.4 244.9 25.5 235.6 25.6C232.5 25.6 231.1 26.9 230.4 29.7C223.7 55.4 205.6 70.8 183.4 82.9C162 94.5 138.7 99.5 115.1 103.6C100.5 106.1 85.8 107.1 70.9 106.6C64.9 106.4 59 108 53 107.7C36.6 106.7 20.2 106.1 3.8 104.7C2.3 104.5 1.1 104 0.1 103.1Z"
        fill="#F59B92" />
</svg>