<svg width="514" height="219" viewBox="0 0 514 219" fill="none"
	xmlns="http://www.w3.org/2000/svg">
	<path d="M22.9463 191V187.256H26.6123V167.444H22.9463V163.7H36.7913C38.4293 163.7 39.8593 163.986 41.0813 164.558C42.3033 165.104 43.2523 165.897 43.9283 166.937C44.6303 167.951 44.9813 169.16 44.9813 170.564V170.954C44.9813 172.202 44.7473 173.229 44.2793 174.035C43.8113 174.841 43.2393 175.465 42.5633 175.907C41.9133 176.349 41.2893 176.661 40.6913 176.843V177.467C41.2893 177.623 41.9263 177.935 42.6023 178.403C43.3043 178.845 43.8893 179.469 44.3573 180.275C44.8513 181.081 45.0983 182.134 45.0983 183.434V183.824C45.0983 185.332 44.7473 186.619 44.0453 187.685C43.3433 188.751 42.3683 189.57 41.1203 190.142C39.8983 190.714 38.4813 191 36.8693 191H22.9463ZM30.8633 187.178H36.3623C37.7663 187.178 38.8713 186.84 39.6773 186.164C40.4833 185.488 40.8863 184.552 40.8863 183.356V183.005C40.8863 181.809 40.4833 180.873 39.6773 180.197C38.8973 179.521 37.7923 179.183 36.3623 179.183H30.8633V187.178ZM30.8633 175.322H36.3623C37.6883 175.322 38.7543 174.997 39.5603 174.347C40.3663 173.671 40.7693 172.761 40.7693 171.617V171.227C40.7693 170.083 40.3663 169.186 39.5603 168.536C38.7803 167.86 37.7143 167.522 36.3623 167.522H30.8633V175.322ZM57.3086 191.351C55.8526 191.351 54.5526 191.026 53.4086 190.376C52.2646 189.726 51.3676 188.803 50.7176 187.607C50.0676 186.411 49.7426 184.981 49.7426 183.317V171.773H53.7596V183.044C53.7596 184.708 54.1756 185.943 55.0076 186.749C55.8396 187.529 56.9966 187.919 58.4786 187.919C60.1166 187.919 61.4296 187.373 62.4176 186.281C63.4316 185.163 63.9386 183.564 63.9386 181.484V171.773H67.9556V191H64.0166V188.114H63.3926C63.0286 188.894 62.3786 189.635 61.4426 190.337C60.5066 191.013 59.1286 191.351 57.3086 191.351ZM76.1167 198.8V195.29H86.8417C87.5697 195.29 87.9337 194.9 87.9337 194.12V188.192H87.3097C87.0757 188.712 86.7117 189.219 86.2177 189.713C85.7497 190.181 85.1127 190.571 84.3067 190.883C83.5007 191.195 82.4867 191.351 81.2647 191.351C79.8087 191.351 78.5087 191.026 77.3647 190.376C76.2207 189.726 75.3237 188.803 74.6737 187.607C74.0237 186.411 73.6987 184.994 73.6987 183.356V171.773H77.7157V183.044C77.7157 184.708 78.1317 185.943 78.9637 186.749C79.7957 187.529 80.9527 187.919 82.4347 187.919C84.0727 187.919 85.3857 187.373 86.3737 186.281C87.3877 185.189 87.8947 183.603 87.8947 181.523V171.773H91.9117V194.939C91.9117 196.109 91.5607 197.045 90.8587 197.747C90.1827 198.449 89.2467 198.8 88.0507 198.8H76.1167ZM113.082 191V167.522H104.697V163.7H125.679V167.522H117.294V191H113.082ZM132.191 191.546C130.813 191.546 129.578 191.312 128.486 190.844C127.42 190.376 126.562 189.687 125.912 188.777C125.288 187.867 124.976 186.762 124.976 185.462C124.976 184.136 125.288 183.044 125.912 182.186C126.562 181.302 127.433 180.639 128.525 180.197C129.643 179.755 130.904 179.534 132.308 179.534H138.158V178.286C138.158 177.168 137.82 176.271 137.144 175.595C136.468 174.919 135.428 174.581 134.024 174.581C132.646 174.581 131.593 174.906 130.865 175.556C130.137 176.206 129.656 177.051 129.422 178.091L125.678 176.882C125.99 175.842 126.484 174.906 127.16 174.074C127.862 173.216 128.785 172.527 129.929 172.007C131.073 171.487 132.451 171.227 134.063 171.227C136.559 171.227 138.522 171.864 139.952 173.138C141.382 174.412 142.097 176.219 142.097 178.559V186.476C142.097 187.256 142.461 187.646 143.189 187.646H144.827V191H141.824C140.914 191 140.173 190.766 139.601 190.298C139.029 189.83 138.743 189.193 138.743 188.387V188.27H138.158C137.95 188.66 137.638 189.115 137.222 189.635C136.806 190.155 136.195 190.61 135.389 191C134.583 191.364 133.517 191.546 132.191 191.546ZM132.776 188.231C134.388 188.231 135.688 187.776 136.676 186.866C137.664 185.93 138.158 184.656 138.158 183.044V182.654H132.542C131.476 182.654 130.618 182.888 129.968 183.356C129.318 183.798 128.993 184.461 128.993 185.345C128.993 186.229 129.331 186.931 130.007 187.451C130.683 187.971 131.606 188.231 132.776 188.231ZM147.095 191L154.427 181.289L147.251 171.773H151.97L157.001 178.676H157.625L162.656 171.773H167.414L160.199 181.289L167.531 191H162.734L157.625 183.941H157.001L151.892 191H147.095Z" fill="white"/>
	<path d="M368.379 191.546C366.325 191.546 364.505 191.182 362.919 190.454C361.333 189.726 360.085 188.66 359.175 187.256C358.291 185.826 357.849 184.097 357.849 182.069V181.094H362.022V182.069C362.022 183.993 362.594 185.436 363.738 186.398C364.908 187.36 366.455 187.841 368.379 187.841C370.329 187.841 371.798 187.438 372.786 186.632C373.774 185.8 374.268 184.734 374.268 183.434C374.268 182.576 374.034 181.874 373.566 181.328C373.098 180.782 372.435 180.353 371.577 180.041C370.719 179.703 369.692 179.391 368.496 179.105L367.053 178.754C365.311 178.338 363.79 177.831 362.49 177.233C361.216 176.609 360.228 175.79 359.526 174.776C358.824 173.762 358.473 172.462 358.473 170.876C358.473 169.264 358.863 167.886 359.643 166.742C360.449 165.598 361.554 164.714 362.958 164.09C364.362 163.466 366.013 163.154 367.911 163.154C369.809 163.154 371.499 163.479 372.981 164.129C374.489 164.779 375.672 165.741 376.53 167.015C377.388 168.289 377.817 169.888 377.817 171.812V173.216H373.644V171.812C373.644 170.642 373.397 169.693 372.903 168.965C372.435 168.237 371.772 167.704 370.914 167.366C370.056 167.028 369.055 166.859 367.911 166.859C366.247 166.859 364.947 167.21 364.011 167.912C363.101 168.588 362.646 169.537 362.646 170.759C362.646 171.591 362.841 172.28 363.231 172.826C363.647 173.346 364.245 173.775 365.025 174.113C365.805 174.451 366.78 174.75 367.95 175.01L369.393 175.361C371.161 175.751 372.721 176.258 374.073 176.882C375.425 177.48 376.491 178.299 377.271 179.339C378.051 180.379 378.441 181.718 378.441 183.356C378.441 184.994 378.025 186.424 377.193 187.646C376.387 188.868 375.23 189.83 373.722 190.532C372.214 191.208 370.433 191.546 368.379 191.546ZM391.794 191.546C389.844 191.546 388.141 191.143 386.685 190.337C385.229 189.505 384.085 188.348 383.253 186.866C382.447 185.358 382.044 183.616 382.044 181.64V181.172C382.044 179.17 382.447 177.428 383.253 175.946C384.059 174.438 385.177 173.281 386.607 172.475C388.063 171.643 389.74 171.227 391.638 171.227C393.484 171.227 395.096 171.643 396.474 172.475C397.878 173.281 398.97 174.412 399.75 175.868C400.53 177.324 400.92 179.027 400.92 180.977V182.498H386.139C386.191 184.188 386.75 185.54 387.816 186.554C388.908 187.542 390.26 188.036 391.872 188.036C393.38 188.036 394.511 187.698 395.265 187.022C396.045 186.346 396.643 185.566 397.059 184.682L400.374 186.398C400.01 187.126 399.477 187.893 398.775 188.699C398.099 189.505 397.202 190.181 396.084 190.727C394.966 191.273 393.536 191.546 391.794 191.546ZM386.178 179.417H396.825C396.721 177.961 396.201 176.83 395.265 176.024C394.329 175.192 393.107 174.776 391.599 174.776C390.091 174.776 388.856 175.192 387.894 176.024C386.958 176.83 386.386 177.961 386.178 179.417ZM405.756 191V163.7H409.773V191H405.756ZM415.734 191V163.7H419.751V191H415.734ZM440.944 191V167.522H432.559V163.7H453.541V167.522H445.156V191H440.944ZM460.054 191.546C458.676 191.546 457.441 191.312 456.349 190.844C455.283 190.376 454.425 189.687 453.775 188.777C453.151 187.867 452.839 186.762 452.839 185.462C452.839 184.136 453.151 183.044 453.775 182.186C454.425 181.302 455.296 180.639 456.388 180.197C457.506 179.755 458.767 179.534 460.171 179.534H466.021V178.286C466.021 177.168 465.683 176.271 465.007 175.595C464.331 174.919 463.291 174.581 461.887 174.581C460.509 174.581 459.456 174.906 458.728 175.556C458 176.206 457.519 177.051 457.285 178.091L453.541 176.882C453.853 175.842 454.347 174.906 455.023 174.074C455.725 173.216 456.648 172.527 457.792 172.007C458.936 171.487 460.314 171.227 461.926 171.227C464.422 171.227 466.385 171.864 467.815 173.138C469.245 174.412 469.96 176.219 469.96 178.559V186.476C469.96 187.256 470.324 187.646 471.052 187.646H472.69V191H469.687C468.777 191 468.036 190.766 467.464 190.298C466.892 189.83 466.606 189.193 466.606 188.387V188.27H466.021C465.813 188.66 465.501 189.115 465.085 189.635C464.669 190.155 464.058 190.61 463.252 191C462.446 191.364 461.38 191.546 460.054 191.546ZM460.639 188.231C462.251 188.231 463.551 187.776 464.539 186.866C465.527 185.93 466.021 184.656 466.021 183.044V182.654H460.405C459.339 182.654 458.481 182.888 457.831 183.356C457.181 183.798 456.856 184.461 456.856 185.345C456.856 186.229 457.194 186.931 457.87 187.451C458.546 187.971 459.469 188.231 460.639 188.231ZM474.957 191L482.289 181.289L475.113 171.773H479.832L484.863 178.676H485.487L490.518 171.773H495.276L488.061 181.289L495.393 191H490.596L485.487 183.941H484.863L479.754 191H474.957Z" fill="white"/>
	<path d="M24.672 134V73.904H23.136L12.096 96.56H1.44L16.32 66.8H34.752V134H24.672ZM72.6308 135.344C64.8228 135.344 58.5828 133.136 53.9108 128.72C49.3028 124.24 46.9988 117.52 46.9988 108.56V92.24C46.9988 83.472 49.3028 76.816 53.9108 72.272C58.5828 67.728 64.8228 65.456 72.6308 65.456C80.5028 65.456 86.7428 67.728 91.3508 72.272C96.0228 76.816 98.3588 83.472 98.3588 92.24V108.56C98.3588 117.52 96.0228 124.24 91.3508 128.72C86.7428 133.136 80.5028 135.344 72.6308 135.344ZM72.6308 126.32C77.9428 126.32 81.8788 124.816 84.4388 121.808C86.9988 118.736 88.2788 114.448 88.2788 108.944V91.664C88.2788 86.16 86.9028 81.936 84.1508 78.992C81.3988 75.984 77.5588 74.48 72.6308 74.48C67.6388 74.48 63.7988 76.016 61.1108 79.088C58.4228 82.096 57.0788 86.288 57.0788 91.664V108.944C57.0788 114.576 58.3588 118.896 60.9188 121.904C63.5428 124.848 67.4468 126.32 72.6308 126.32ZM117.13 135.248L110.986 130.256L163.498 65.552L169.642 70.544L117.13 135.248ZM158.698 135.056C153.962 135.056 150.218 133.744 147.466 131.12C144.714 128.432 143.338 124.816 143.338 120.272V119.696C143.338 115.088 144.714 111.472 147.466 108.848C150.218 106.16 153.962 104.816 158.698 104.816C163.37 104.816 167.114 106.16 169.93 108.848C172.746 111.472 174.154 115.088 174.154 119.696V120.272C174.154 124.816 172.746 128.432 169.93 131.12C167.178 133.744 163.434 135.056 158.698 135.056ZM158.698 128.336C161.002 128.336 162.794 127.632 164.074 126.224C165.418 124.816 166.09 122.96 166.09 120.656V119.312C166.09 116.944 165.418 115.056 164.074 113.648C162.794 112.24 161.002 111.536 158.698 111.536C156.458 111.536 154.666 112.24 153.322 113.648C152.042 115.056 151.402 116.944 151.402 119.312V120.656C151.402 122.96 152.042 124.816 153.322 126.224C154.666 127.632 156.458 128.336 158.698 128.336ZM121.93 95.984C117.194 95.984 113.418 94.672 110.602 92.048C107.85 89.36 106.474 85.744 106.474 81.2V80.528C106.474 75.92 107.85 72.304 110.602 69.68C113.418 67.056 117.194 65.744 121.93 65.744C126.602 65.744 130.314 67.056 133.066 69.68C135.882 72.304 137.29 75.92 137.29 80.528V81.2C137.29 85.744 135.914 89.36 133.162 92.048C130.41 94.672 126.666 95.984 121.93 95.984ZM121.93 89.264C124.17 89.264 125.93 88.56 127.21 87.152C128.554 85.68 129.226 83.792 129.226 81.488V80.144C129.226 77.84 128.554 75.984 127.21 74.576C125.93 73.168 124.17 72.464 121.93 72.464C119.626 72.464 117.802 73.168 116.458 74.576C115.178 75.984 114.538 77.84 114.538 80.144V81.488C114.538 83.792 115.178 85.68 116.458 87.152C117.802 88.56 119.626 89.264 121.93 89.264Z" fill="white"/>
	<path d="M361.672 134V73.904H360.136L349.096 96.56H338.44L353.32 66.8H371.752V134H361.672ZM409.631 135.344C401.823 135.344 395.583 133.136 390.911 128.72C386.303 124.24 383.999 117.52 383.999 108.56V92.24C383.999 83.472 386.303 76.816 390.911 72.272C395.583 67.728 401.823 65.456 409.631 65.456C417.503 65.456 423.743 67.728 428.351 72.272C433.023 76.816 435.359 83.472 435.359 92.24V108.56C435.359 117.52 433.023 124.24 428.351 128.72C423.743 133.136 417.503 135.344 409.631 135.344ZM409.631 126.32C414.943 126.32 418.879 124.816 421.439 121.808C423.999 118.736 425.279 114.448 425.279 108.944V91.664C425.279 86.16 423.903 81.936 421.151 78.992C418.399 75.984 414.559 74.48 409.631 74.48C404.639 74.48 400.799 76.016 398.111 79.088C395.423 82.096 394.079 86.288 394.079 91.664V108.944C394.079 114.576 395.359 118.896 397.919 121.904C400.543 124.848 404.447 126.32 409.631 126.32ZM454.13 135.248L447.986 130.256L500.498 65.552L506.642 70.544L454.13 135.248ZM495.698 135.056C490.962 135.056 487.218 133.744 484.466 131.12C481.714 128.432 480.338 124.816 480.338 120.272V119.696C480.338 115.088 481.714 111.472 484.466 108.848C487.218 106.16 490.962 104.816 495.698 104.816C500.37 104.816 504.114 106.16 506.93 108.848C509.746 111.472 511.154 115.088 511.154 119.696V120.272C511.154 124.816 509.746 128.432 506.93 131.12C504.178 133.744 500.434 135.056 495.698 135.056ZM495.698 128.336C498.002 128.336 499.794 127.632 501.074 126.224C502.418 124.816 503.09 122.96 503.09 120.656V119.312C503.09 116.944 502.418 115.056 501.074 113.648C499.794 112.24 498.002 111.536 495.698 111.536C493.458 111.536 491.666 112.24 490.322 113.648C489.042 115.056 488.402 116.944 488.402 119.312V120.656C488.402 122.96 489.042 124.816 490.322 126.224C491.666 127.632 493.458 128.336 495.698 128.336ZM458.93 95.984C454.194 95.984 450.418 94.672 447.602 92.048C444.85 89.36 443.474 85.744 443.474 81.2V80.528C443.474 75.92 444.85 72.304 447.602 69.68C450.418 67.056 454.194 65.744 458.93 65.744C463.602 65.744 467.314 67.056 470.066 69.68C472.882 72.304 474.29 75.92 474.29 80.528V81.2C474.29 85.744 472.914 89.36 470.162 92.048C467.41 94.672 463.666 95.984 458.93 95.984ZM458.93 89.264C461.17 89.264 462.93 88.56 464.21 87.152C465.554 85.68 466.226 83.792 466.226 81.488V80.144C466.226 77.84 465.554 75.984 464.21 74.576C462.93 73.168 461.17 72.464 458.93 72.464C456.626 72.464 454.802 73.168 453.458 74.576C452.178 75.984 451.538 77.84 451.538 80.144V81.488C451.538 83.792 452.178 85.68 453.458 87.152C454.802 88.56 456.626 89.264 458.93 89.264Z" fill="white"/>
</svg>
