<svg width="476" height="219" viewBox="0 0 476 219" fill="none" xmlns="http://www.w3.org/2000/svg">
<path d="M1.94628 191V187.256H5.61228V167.444H1.94628V163.7H15.7913C17.4293 163.7 18.8593 163.986 20.0813 164.558C21.3033 165.104 22.2523 165.897 22.9283 166.937C23.6303 167.951 23.9813 169.16 23.9813 170.564V170.954C23.9813 172.202 23.7473 173.229 23.2793 174.035C22.8113 174.841 22.2393 175.465 21.5633 175.907C20.9133 176.349 20.2893 176.661 19.6913 176.843V177.467C20.2893 177.623 20.9263 177.935 21.6023 178.403C22.3043 178.845 22.8893 179.469 23.3573 180.275C23.8513 181.081 24.0983 182.134 24.0983 183.434V183.824C24.0983 185.332 23.7473 186.619 23.0453 187.685C22.3433 188.751 21.3683 189.57 20.1203 190.142C18.8983 190.714 17.4813 191 15.8693 191H1.94628ZM9.86328 187.178H15.3623C16.7663 187.178 17.8713 186.84 18.6773 186.164C19.4833 185.488 19.8863 184.552 19.8863 183.356V183.005C19.8863 181.809 19.4833 180.873 18.6773 180.197C17.8973 179.521 16.7923 179.183 15.3623 179.183H9.86328V187.178ZM9.86328 175.322H15.3623C16.6883 175.322 17.7543 174.997 18.5603 174.347C19.3663 173.671 19.7693 172.761 19.7693 171.617V171.227C19.7693 170.083 19.3663 169.186 18.5603 168.536C17.7803 167.86 16.7143 167.522 15.3623 167.522H9.86328V175.322ZM36.3086 191.351C34.8526 191.351 33.5526 191.026 32.4086 190.376C31.2646 189.726 30.3676 188.803 29.7176 187.607C29.0676 186.411 28.7426 184.981 28.7426 183.317V171.773H32.7596V183.044C32.7596 184.708 33.1756 185.943 34.0076 186.749C34.8396 187.529 35.9966 187.919 37.4786 187.919C39.1166 187.919 40.4296 187.373 41.4176 186.281C42.4316 185.163 42.9386 183.564 42.9386 181.484V171.773H46.9556V191H43.0166V188.114H42.3926C42.0286 188.894 41.3786 189.635 40.4426 190.337C39.5066 191.013 38.1286 191.351 36.3086 191.351ZM55.1167 198.8V195.29H65.8417C66.5697 195.29 66.9337 194.9 66.9337 194.12V188.192H66.3097C66.0757 188.712 65.7117 189.219 65.2177 189.713C64.7497 190.181 64.1127 190.571 63.3067 190.883C62.5007 191.195 61.4867 191.351 60.2647 191.351C58.8087 191.351 57.5087 191.026 56.3647 190.376C55.2207 189.726 54.3237 188.803 53.6737 187.607C53.0237 186.411 52.6987 184.994 52.6987 183.356V171.773H56.7157V183.044C56.7157 184.708 57.1317 185.943 57.9637 186.749C58.7957 187.529 59.9527 187.919 61.4347 187.919C63.0727 187.919 64.3857 187.373 65.3737 186.281C66.3877 185.189 66.8947 183.603 66.8947 181.523V171.773H70.9117V194.939C70.9117 196.109 70.5607 197.045 69.8587 197.747C69.1827 198.449 68.2467 198.8 67.0507 198.8H55.1167ZM92.0817 191V167.522H83.6967V163.7H104.679V167.522H96.2937V191H92.0817ZM111.191 191.546C109.813 191.546 108.578 191.312 107.486 190.844C106.42 190.376 105.562 189.687 104.912 188.777C104.288 187.867 103.976 186.762 103.976 185.462C103.976 184.136 104.288 183.044 104.912 182.186C105.562 181.302 106.433 180.639 107.525 180.197C108.643 179.755 109.904 179.534 111.308 179.534H117.158V178.286C117.158 177.168 116.82 176.271 116.144 175.595C115.468 174.919 114.428 174.581 113.024 174.581C111.646 174.581 110.593 174.906 109.865 175.556C109.137 176.206 108.656 177.051 108.422 178.091L104.678 176.882C104.99 175.842 105.484 174.906 106.16 174.074C106.862 173.216 107.785 172.527 108.929 172.007C110.073 171.487 111.451 171.227 113.063 171.227C115.559 171.227 117.522 171.864 118.952 173.138C120.382 174.412 121.097 176.219 121.097 178.559V186.476C121.097 187.256 121.461 187.646 122.189 187.646H123.827V191H120.824C119.914 191 119.173 190.766 118.601 190.298C118.029 189.83 117.743 189.193 117.743 188.387V188.27H117.158C116.95 188.66 116.638 189.115 116.222 189.635C115.806 190.155 115.195 190.61 114.389 191C113.583 191.364 112.517 191.546 111.191 191.546ZM111.776 188.231C113.388 188.231 114.688 187.776 115.676 186.866C116.664 185.93 117.158 184.656 117.158 183.044V182.654H111.542C110.476 182.654 109.618 182.888 108.968 183.356C108.318 183.798 107.993 184.461 107.993 185.345C107.993 186.229 108.331 186.931 109.007 187.451C109.683 187.971 110.606 188.231 111.776 188.231ZM126.095 191L133.427 181.289L126.251 171.773H130.97L136.001 178.676H136.625L141.656 171.773H146.414L139.199 181.289L146.531 191H141.734L136.625 183.941H136.001L130.892 191H126.095Z" fill="white"/>
<path d="M347.379 191.546C345.325 191.546 343.505 191.182 341.919 190.454C340.333 189.726 339.085 188.66 338.175 187.256C337.291 185.826 336.849 184.097 336.849 182.069V181.094H341.022V182.069C341.022 183.993 341.594 185.436 342.738 186.398C343.908 187.36 345.455 187.841 347.379 187.841C349.329 187.841 350.798 187.438 351.786 186.632C352.774 185.8 353.268 184.734 353.268 183.434C353.268 182.576 353.034 181.874 352.566 181.328C352.098 180.782 351.435 180.353 350.577 180.041C349.719 179.703 348.692 179.391 347.496 179.105L346.053 178.754C344.311 178.338 342.79 177.831 341.49 177.233C340.216 176.609 339.228 175.79 338.526 174.776C337.824 173.762 337.473 172.462 337.473 170.876C337.473 169.264 337.863 167.886 338.643 166.742C339.449 165.598 340.554 164.714 341.958 164.09C343.362 163.466 345.013 163.154 346.911 163.154C348.809 163.154 350.499 163.479 351.981 164.129C353.489 164.779 354.672 165.741 355.53 167.015C356.388 168.289 356.817 169.888 356.817 171.812V173.216H352.644V171.812C352.644 170.642 352.397 169.693 351.903 168.965C351.435 168.237 350.772 167.704 349.914 167.366C349.056 167.028 348.055 166.859 346.911 166.859C345.247 166.859 343.947 167.21 343.011 167.912C342.101 168.588 341.646 169.537 341.646 170.759C341.646 171.591 341.841 172.28 342.231 172.826C342.647 173.346 343.245 173.775 344.025 174.113C344.805 174.451 345.78 174.75 346.95 175.01L348.393 175.361C350.161 175.751 351.721 176.258 353.073 176.882C354.425 177.48 355.491 178.299 356.271 179.339C357.051 180.379 357.441 181.718 357.441 183.356C357.441 184.994 357.025 186.424 356.193 187.646C355.387 188.868 354.23 189.83 352.722 190.532C351.214 191.208 349.433 191.546 347.379 191.546ZM370.794 191.546C368.844 191.546 367.141 191.143 365.685 190.337C364.229 189.505 363.085 188.348 362.253 186.866C361.447 185.358 361.044 183.616 361.044 181.64V181.172C361.044 179.17 361.447 177.428 362.253 175.946C363.059 174.438 364.177 173.281 365.607 172.475C367.063 171.643 368.74 171.227 370.638 171.227C372.484 171.227 374.096 171.643 375.474 172.475C376.878 173.281 377.97 174.412 378.75 175.868C379.53 177.324 379.92 179.027 379.92 180.977V182.498H365.139C365.191 184.188 365.75 185.54 366.816 186.554C367.908 187.542 369.26 188.036 370.872 188.036C372.38 188.036 373.511 187.698 374.265 187.022C375.045 186.346 375.643 185.566 376.059 184.682L379.374 186.398C379.01 187.126 378.477 187.893 377.775 188.699C377.099 189.505 376.202 190.181 375.084 190.727C373.966 191.273 372.536 191.546 370.794 191.546ZM365.178 179.417H375.825C375.721 177.961 375.201 176.83 374.265 176.024C373.329 175.192 372.107 174.776 370.599 174.776C369.091 174.776 367.856 175.192 366.894 176.024C365.958 176.83 365.386 177.961 365.178 179.417ZM384.756 191V163.7H388.773V191H384.756ZM394.734 191V163.7H398.751V191H394.734ZM419.944 191V167.522H411.559V163.7H432.541V167.522H424.156V191H419.944ZM439.054 191.546C437.676 191.546 436.441 191.312 435.349 190.844C434.283 190.376 433.425 189.687 432.775 188.777C432.151 187.867 431.839 186.762 431.839 185.462C431.839 184.136 432.151 183.044 432.775 182.186C433.425 181.302 434.296 180.639 435.388 180.197C436.506 179.755 437.767 179.534 439.171 179.534H445.021V178.286C445.021 177.168 444.683 176.271 444.007 175.595C443.331 174.919 442.291 174.581 440.887 174.581C439.509 174.581 438.456 174.906 437.728 175.556C437 176.206 436.519 177.051 436.285 178.091L432.541 176.882C432.853 175.842 433.347 174.906 434.023 174.074C434.725 173.216 435.648 172.527 436.792 172.007C437.936 171.487 439.314 171.227 440.926 171.227C443.422 171.227 445.385 171.864 446.815 173.138C448.245 174.412 448.96 176.219 448.96 178.559V186.476C448.96 187.256 449.324 187.646 450.052 187.646H451.69V191H448.687C447.777 191 447.036 190.766 446.464 190.298C445.892 189.83 445.606 189.193 445.606 188.387V188.27H445.021C444.813 188.66 444.501 189.115 444.085 189.635C443.669 190.155 443.058 190.61 442.252 191C441.446 191.364 440.38 191.546 439.054 191.546ZM439.639 188.231C441.251 188.231 442.551 187.776 443.539 186.866C444.527 185.93 445.021 184.656 445.021 183.044V182.654H439.405C438.339 182.654 437.481 182.888 436.831 183.356C436.181 183.798 435.856 184.461 435.856 185.345C435.856 186.229 436.194 186.931 436.87 187.451C437.546 187.971 438.469 188.231 439.639 188.231ZM453.957 191L461.289 181.289L454.113 171.773H458.832L463.863 178.676H464.487L469.518 171.773H474.276L467.061 181.289L474.393 191H469.596L464.487 183.941H463.863L458.754 191H453.957Z" fill="white"/>
<path d="M31.1216 135.344C26.2576 135.344 21.9696 134.416 18.2576 132.56C14.5456 130.64 11.6656 127.984 9.61763 124.592C7.56963 121.2 6.54563 117.264 6.54563 112.784V89.552C6.54563 84.304 7.56963 79.888 9.61763 76.304C11.7296 72.72 14.6736 70.032 18.4496 68.24C22.2256 66.384 26.6096 65.456 31.6016 65.456C36.5296 65.456 40.7856 66.32 44.3696 68.048C47.9536 69.712 50.7056 72.112 52.6256 75.248C54.5456 78.32 55.5056 81.936 55.5056 86.096H45.3296C45.3296 82.768 44.2096 80.016 41.9696 77.84C39.7936 75.6 36.3376 74.48 31.6016 74.48C26.8016 74.48 23.0896 75.76 20.4656 78.32C17.9056 80.816 16.6256 84.304 16.6256 88.784V96.848H18.1616C19.2496 95.312 21.0096 93.84 23.4416 92.432C25.9376 91.024 29.4576 90.32 34.0016 90.32C37.9696 90.32 41.6176 91.184 44.9456 92.912C48.2736 94.64 50.9296 97.104 52.9136 100.304C54.9616 103.504 55.9856 107.376 55.9856 111.92V113.072C55.9856 117.488 54.9296 121.392 52.8176 124.784C50.7056 128.112 47.7616 130.704 43.9856 132.56C40.2736 134.416 35.9856 135.344 31.1216 135.344ZM31.2176 126.32C35.6976 126.32 39.2496 125.104 41.8736 122.672C44.5616 120.24 45.9056 116.976 45.9056 112.88V112.112C45.9056 109.36 45.2976 106.992 44.0816 105.008C42.8656 102.96 41.1376 101.36 38.8976 100.208C36.7216 99.056 34.1616 98.48 31.2176 98.48C28.3376 98.48 25.7776 99.056 23.5376 100.208C21.3616 101.36 19.6656 102.96 18.4496 105.008C17.2336 106.992 16.6256 109.36 16.6256 112.112V112.88C16.6256 116.976 17.9376 120.24 20.5616 122.672C23.2496 125.104 26.8016 126.32 31.2176 126.32ZM73.8641 135.248L67.7201 130.256L120.232 65.552L126.376 70.544L73.8641 135.248ZM115.432 135.056C110.696 135.056 106.952 133.744 104.2 131.12C101.448 128.432 100.072 124.816 100.072 120.272V119.696C100.072 115.088 101.448 111.472 104.2 108.848C106.952 106.16 110.696 104.816 115.432 104.816C120.104 104.816 123.848 106.16 126.664 108.848C129.48 111.472 130.888 115.088 130.888 119.696V120.272C130.888 124.816 129.48 128.432 126.664 131.12C123.912 133.744 120.168 135.056 115.432 135.056ZM115.432 128.336C117.736 128.336 119.528 127.632 120.808 126.224C122.152 124.816 122.824 122.96 122.824 120.656V119.312C122.824 116.944 122.152 115.056 120.808 113.648C119.528 112.24 117.736 111.536 115.432 111.536C113.192 111.536 111.4 112.24 110.056 113.648C108.776 115.056 108.136 116.944 108.136 119.312V120.656C108.136 122.96 108.776 124.816 110.056 126.224C111.4 127.632 113.192 128.336 115.432 128.336ZM78.6641 95.984C73.9281 95.984 70.1521 94.672 67.3361 92.048C64.5841 89.36 63.2081 85.744 63.2081 81.2V80.528C63.2081 75.92 64.5841 72.304 67.3361 69.68C70.1521 67.056 73.9281 65.744 78.6641 65.744C83.3361 65.744 87.0481 67.056 89.8001 69.68C92.6161 72.304 94.0241 75.92 94.0241 80.528V81.2C94.0241 85.744 92.6481 89.36 89.8961 92.048C87.1441 94.672 83.4001 95.984 78.6641 95.984ZM78.6641 89.264C80.9041 89.264 82.6641 88.56 83.9441 87.152C85.2881 85.68 85.9601 83.792 85.9601 81.488V80.144C85.9601 77.84 85.2881 75.984 83.9441 74.576C82.6641 73.168 80.9041 72.464 78.6641 72.464C76.3601 72.464 74.5361 73.168 73.1921 74.576C71.9121 75.984 71.2721 77.84 71.2721 80.144V81.488C71.2721 83.792 71.9121 85.68 73.1921 87.152C74.5361 88.56 76.3601 89.264 78.6641 89.264Z" fill="white"/>
<path d="M368.122 135.344C363.258 135.344 358.97 134.416 355.258 132.56C351.546 130.64 348.666 127.984 346.618 124.592C344.57 121.2 343.546 117.264 343.546 112.784V89.552C343.546 84.304 344.57 79.888 346.618 76.304C348.73 72.72 351.674 70.032 355.45 68.24C359.226 66.384 363.61 65.456 368.602 65.456C373.53 65.456 377.786 66.32 381.37 68.048C384.954 69.712 387.706 72.112 389.626 75.248C391.546 78.32 392.506 81.936 392.506 86.096H382.33C382.33 82.768 381.21 80.016 378.97 77.84C376.794 75.6 373.338 74.48 368.602 74.48C363.802 74.48 360.09 75.76 357.466 78.32C354.906 80.816 353.626 84.304 353.626 88.784V96.848H355.162C356.25 95.312 358.01 93.84 360.442 92.432C362.938 91.024 366.458 90.32 371.002 90.32C374.97 90.32 378.618 91.184 381.946 92.912C385.274 94.64 387.93 97.104 389.914 100.304C391.962 103.504 392.986 107.376 392.986 111.92V113.072C392.986 117.488 391.93 121.392 389.818 124.784C387.706 128.112 384.762 130.704 380.986 132.56C377.274 134.416 372.986 135.344 368.122 135.344ZM368.218 126.32C372.698 126.32 376.25 125.104 378.874 122.672C381.562 120.24 382.906 116.976 382.906 112.88V112.112C382.906 109.36 382.298 106.992 381.082 105.008C379.866 102.96 378.138 101.36 375.898 100.208C373.722 99.056 371.162 98.48 368.218 98.48C365.338 98.48 362.778 99.056 360.538 100.208C358.362 101.36 356.666 102.96 355.45 105.008C354.234 106.992 353.626 109.36 353.626 112.112V112.88C353.626 116.976 354.938 120.24 357.562 122.672C360.25 125.104 363.802 126.32 368.218 126.32ZM410.864 135.248L404.72 130.256L457.232 65.552L463.376 70.544L410.864 135.248ZM452.432 135.056C447.696 135.056 443.952 133.744 441.2 131.12C438.448 128.432 437.072 124.816 437.072 120.272V119.696C437.072 115.088 438.448 111.472 441.2 108.848C443.952 106.16 447.696 104.816 452.432 104.816C457.104 104.816 460.848 106.16 463.664 108.848C466.48 111.472 467.888 115.088 467.888 119.696V120.272C467.888 124.816 466.48 128.432 463.664 131.12C460.912 133.744 457.168 135.056 452.432 135.056ZM452.432 128.336C454.736 128.336 456.528 127.632 457.808 126.224C459.152 124.816 459.824 122.96 459.824 120.656V119.312C459.824 116.944 459.152 115.056 457.808 113.648C456.528 112.24 454.736 111.536 452.432 111.536C450.192 111.536 448.4 112.24 447.056 113.648C445.776 115.056 445.136 116.944 445.136 119.312V120.656C445.136 122.96 445.776 124.816 447.056 126.224C448.4 127.632 450.192 128.336 452.432 128.336ZM415.664 95.984C410.928 95.984 407.152 94.672 404.336 92.048C401.584 89.36 400.208 85.744 400.208 81.2V80.528C400.208 75.92 401.584 72.304 404.336 69.68C407.152 67.056 410.928 65.744 415.664 65.744C420.336 65.744 424.048 67.056 426.8 69.68C429.616 72.304 431.024 75.92 431.024 80.528V81.2C431.024 85.744 429.648 89.36 426.896 92.048C424.144 94.672 420.4 95.984 415.664 95.984ZM415.664 89.264C417.904 89.264 419.664 88.56 420.944 87.152C422.288 85.68 422.96 83.792 422.96 81.488V80.144C422.96 77.84 422.288 75.984 420.944 74.576C419.664 73.168 417.904 72.464 415.664 72.464C413.36 72.464 411.536 73.168 410.192 74.576C408.912 75.984 408.272 77.84 408.272 80.144V81.488C408.272 83.792 408.912 85.68 410.192 87.152C411.536 88.56 413.36 89.264 415.664 89.264Z" fill="white"/>
</svg>
