<svg width="85" height="52" viewBox="0 0 85 52" fill="none" xmlns="http://www.w3.org/2000/svg">
    <path
        d="M94.9001 0.799987C94.9001 17.1 94.9001 33.5 94.9001 49.8C93.3001 51.4 91.3001 51.3 89.3001 51.3C78.1001 51.3 66.9001 51.9 55.8001 51.2C39.1001 50.1 22.5001 48 6.80006 41.4C6.20006 41.1 5.60006 40.9 5.00006 40.5C-1.49994 36.8 -1.69994 31.8 4.70006 28C9.20006 25.3 14.0001 22.8 18.9001 20.9C38.1001 13.4 57.6001 6.89999 77.9001 2.89999C82.0001 1.99999 86.1001 1.49999 90.1001 0.499987C91.6001 0.0999866 93.4001 -0.500013 94.9001 0.799987Z"
        fill="#F49C91" />
</svg>