<svg width="144" height="88" viewBox="0 0 144 88" fill="none" xmlns="http://www.w3.org/2000/svg">
    <path
        d="M132.316 24.1008C133.22 26.9234 132.525 30.1786 130.358 33.6969C128.193 37.2132 124.59 40.9325 119.805 44.6297C110.239 52.0213 96.0354 59.2559 79.4615 64.5611C62.8876 69.8663 47.1231 72.2243 35.0425 71.7618C29.0001 71.5304 23.9074 70.5943 20.1025 68.9891C16.2956 67.3829 13.8398 65.1362 12.9363 62.3135C12.0328 59.4908 12.7274 56.2356 14.8941 52.7174C17.0596 49.201 20.662 45.4817 25.447 41.7845C35.0134 34.3929 49.217 27.1584 65.7909 21.8531C82.3648 16.5479 98.1293 14.1899 110.21 14.6525C116.252 14.8838 121.345 15.8199 125.15 17.4252C128.957 19.0313 131.413 21.2781 132.316 24.1008Z"
        stroke="#FEC052" />
    <ellipse cx="72.1732" cy="43.9213" rx="63.1732" ry="22.9213" fill="#FEC052" />
    <path
        d="M31.792 48.168C31.192 48.168 30.656 48.04 30.184 47.784C29.712 47.52 29.34 47.136 29.068 46.632C28.796 46.128 28.66 45.512 28.66 44.784V42.816C28.66 41.72 28.96 40.884 29.56 40.308C30.16 39.724 30.972 39.432 31.996 39.432C33.004 39.432 33.78 39.708 34.324 40.26C34.868 40.804 35.14 41.536 35.14 42.456V42.516H33.856V42.42C33.856 42.076 33.788 41.768 33.652 41.496C33.516 41.216 33.312 40.996 33.04 40.836C32.768 40.676 32.42 40.596 31.996 40.596C31.356 40.596 30.856 40.792 30.496 41.184C30.136 41.568 29.956 42.104 29.956 42.792V44.808C29.956 45.488 30.136 46.028 30.496 46.428C30.856 46.82 31.36 47.016 32.008 47.016C32.648 47.016 33.116 46.84 33.412 46.488C33.708 46.136 33.856 45.68 33.856 45.12V44.964H31.6V43.848H35.14V48H33.94V47.148H33.748C33.676 47.3 33.568 47.456 33.424 47.616C33.288 47.776 33.088 47.908 32.824 48.012C32.568 48.116 32.224 48.168 31.792 48.168ZM39.5576 48.168C38.9576 48.168 38.4336 48.044 37.9856 47.796C37.5376 47.54 37.1856 47.184 36.9296 46.728C36.6816 46.264 36.5576 45.728 36.5576 45.12V44.976C36.5576 44.36 36.6816 43.824 36.9296 43.368C37.1776 42.904 37.5216 42.548 37.9616 42.3C38.4096 42.044 38.9256 41.916 39.5096 41.916C40.0776 41.916 40.5736 42.044 40.9976 42.3C41.4296 42.548 41.7656 42.896 42.0056 43.344C42.2456 43.792 42.3656 44.316 42.3656 44.916V45.384H37.8176C37.8336 45.904 38.0056 46.32 38.3336 46.632C38.6696 46.936 39.0856 47.088 39.5816 47.088C40.0456 47.088 40.3936 46.984 40.6256 46.776C40.8656 46.568 41.0496 46.328 41.1776 46.056L42.1976 46.584C42.0856 46.808 41.9216 47.044 41.7056 47.292C41.4976 47.54 41.2216 47.748 40.8776 47.916C40.5336 48.084 40.0936 48.168 39.5576 48.168ZM37.8296 44.436H41.1056C41.0736 43.988 40.9136 43.64 40.6256 43.392C40.3376 43.136 39.9616 43.008 39.4976 43.008C39.0336 43.008 38.6536 43.136 38.3576 43.392C38.0696 43.64 37.8936 43.988 37.8296 44.436ZM45.8508 48C45.4908 48 45.2028 47.892 44.9868 47.676C44.7788 47.46 44.6748 47.172 44.6748 46.812V43.128H43.0428V42.084H44.6748V40.128H45.9108V42.084H47.6748V43.128H45.9108V46.596C45.9108 46.836 46.0228 46.956 46.2467 46.956H47.4828V48H45.8508ZM52.8234 48L51.5874 39.6H52.8834L53.8914 47.124H54.0834L55.3794 39.6H57.6474L58.9434 47.124H59.1354L60.1314 39.6H61.4274L60.1914 48H57.9234L56.6034 40.368H56.4114L55.1034 48H52.8234ZM62.744 48V39.6H63.98V42.924H64.172C64.252 42.772 64.364 42.624 64.508 42.48C64.66 42.336 64.856 42.22 65.096 42.132C65.344 42.036 65.656 41.988 66.032 41.988C66.48 41.988 66.876 42.088 67.22 42.288C67.572 42.488 67.848 42.772 68.048 43.14C68.248 43.5 68.348 43.936 68.348 44.448V48H67.112V44.544C67.112 44.032 66.984 43.656 66.728 43.416C66.472 43.168 66.12 43.044 65.672 43.044C65.16 43.044 64.748 43.212 64.436 43.548C64.132 43.884 63.98 44.372 63.98 45.012V48H62.744ZM70.1268 48V42.084H71.3628V48H70.1268ZM70.7508 41.28C70.5108 41.28 70.3068 41.204 70.1388 41.052C69.9788 40.892 69.8988 40.688 69.8988 40.44C69.8988 40.192 69.9788 39.992 70.1388 39.84C70.3068 39.68 70.5108 39.6 70.7508 39.6C70.9988 39.6 71.2028 39.68 71.3628 39.84C71.5228 39.992 71.6028 40.192 71.6028 40.44C71.6028 40.688 71.5228 40.892 71.3628 41.052C71.2028 41.204 70.9988 41.28 70.7508 41.28ZM75.4172 48C75.0572 48 74.7692 47.892 74.5532 47.676C74.3452 47.46 74.2412 47.172 74.2412 46.812V43.128H72.6092V42.084H74.2412V40.128H75.4772V42.084H77.2412V43.128H75.4772V46.596C75.4772 46.836 75.5892 46.956 75.8132 46.956H77.0492V48H75.4172ZM81.1943 48.168C80.5943 48.168 80.0703 48.044 79.6223 47.796C79.1743 47.54 78.8223 47.184 78.5663 46.728C78.3183 46.264 78.1943 45.728 78.1943 45.12V44.976C78.1943 44.36 78.3183 43.824 78.5663 43.368C78.8143 42.904 79.1583 42.548 79.5983 42.3C80.0463 42.044 80.5623 41.916 81.1463 41.916C81.7143 41.916 82.2103 42.044 82.6343 42.3C83.0663 42.548 83.4023 42.896 83.6423 43.344C83.8823 43.792 84.0023 44.316 84.0023 44.916V45.384H79.4543C79.4703 45.904 79.6423 46.32 79.9703 46.632C80.3063 46.936 80.7223 47.088 81.2183 47.088C81.6823 47.088 82.0303 46.984 82.2623 46.776C82.5023 46.568 82.6863 46.328 82.8143 46.056L83.8343 46.584C83.7223 46.808 83.5583 47.044 83.3423 47.292C83.1343 47.54 82.8583 47.748 82.5143 47.916C82.1703 48.084 81.7303 48.168 81.1943 48.168ZM79.4663 44.436H82.7423C82.7103 43.988 82.5503 43.64 82.2623 43.392C81.9743 43.136 81.5983 43.008 81.1343 43.008C80.6703 43.008 80.2903 43.136 79.9943 43.392C79.7063 43.64 79.5303 43.988 79.4663 44.436ZM85.4901 50.4V42.084H86.7021V42.936H86.8941C87.0461 42.672 87.2741 42.436 87.5781 42.228C87.8901 42.02 88.3341 41.916 88.9101 41.916C89.4061 41.916 89.8581 42.036 90.2661 42.276C90.6821 42.516 91.0141 42.864 91.2621 43.32C91.5181 43.768 91.6461 44.312 91.6461 44.952V45.132C91.6461 45.772 91.5221 46.32 91.2741 46.776C91.0261 47.224 90.6941 47.568 90.2781 47.808C89.8621 48.048 89.4061 48.168 88.9101 48.168C88.5261 48.168 88.2021 48.12 87.9381 48.024C87.6741 47.928 87.4621 47.808 87.3021 47.664C87.1421 47.512 87.0141 47.356 86.9181 47.196H86.7261V50.4H85.4901ZM88.5501 47.088C89.0941 47.088 89.5381 46.916 89.8821 46.572C90.2261 46.228 90.3981 45.736 90.3981 45.096V44.988C90.3981 44.356 90.2221 43.868 89.8701 43.524C89.5261 43.18 89.0861 43.008 88.5501 43.008C88.0221 43.008 87.5821 43.18 87.2301 43.524C86.8861 43.868 86.7141 44.356 86.7141 44.988V45.096C86.7141 45.736 86.8861 46.228 87.2301 46.572C87.5821 46.916 88.0221 47.088 88.5501 47.088ZM95.0136 48.168C94.5896 48.168 94.2096 48.096 93.8736 47.952C93.5456 47.808 93.2816 47.596 93.0816 47.316C92.8896 47.036 92.7936 46.696 92.7936 46.296C92.7936 45.888 92.8896 45.552 93.0816 45.288C93.2816 45.016 93.5496 44.812 93.8856 44.676C94.2296 44.54 94.6176 44.472 95.0496 44.472H96.8496V44.088C96.8496 43.744 96.7456 43.468 96.5376 43.26C96.3296 43.052 96.0096 42.948 95.5776 42.948C95.1536 42.948 94.8296 43.048 94.6056 43.248C94.3816 43.448 94.2336 43.708 94.1616 44.028L93.0096 43.656C93.1056 43.336 93.2576 43.048 93.4656 42.792C93.6816 42.528 93.9656 42.316 94.3176 42.156C94.6696 41.996 95.0936 41.916 95.5896 41.916C96.3576 41.916 96.9616 42.112 97.4016 42.504C97.8416 42.896 98.0616 43.452 98.0616 44.172V46.608C98.0616 46.848 98.1736 46.968 98.3976 46.968H98.9016V48H97.9776C97.6976 48 97.4696 47.928 97.2936 47.784C97.1176 47.64 97.0296 47.444 97.0296 47.196V47.16H96.8496C96.7856 47.28 96.6896 47.42 96.5616 47.58C96.4336 47.74 96.2456 47.88 95.9976 48C95.7496 48.112 95.4216 48.168 95.0136 48.168ZM95.1936 47.148C95.6896 47.148 96.0896 47.008 96.3936 46.728C96.6976 46.44 96.8496 46.048 96.8496 45.552V45.432H95.1216C94.7936 45.432 94.5296 45.504 94.3296 45.648C94.1296 45.784 94.0296 45.988 94.0296 46.26C94.0296 46.532 94.1336 46.748 94.3416 46.908C94.5496 47.068 94.8336 47.148 95.1936 47.148ZM100.103 50.4V42.084H101.315V42.936H101.507C101.659 42.672 101.887 42.436 102.191 42.228C102.503 42.02 102.947 41.916 103.523 41.916C104.019 41.916 104.471 42.036 104.879 42.276C105.295 42.516 105.627 42.864 105.875 43.32C106.131 43.768 106.259 44.312 106.259 44.952V45.132C106.259 45.772 106.135 46.32 105.887 46.776C105.639 47.224 105.307 47.568 104.891 47.808C104.475 48.048 104.019 48.168 103.523 48.168C103.139 48.168 102.815 48.12 102.551 48.024C102.287 47.928 102.075 47.808 101.915 47.664C101.755 47.512 101.627 47.356 101.531 47.196H101.339V50.4H100.103ZM103.163 47.088C103.707 47.088 104.151 46.916 104.495 46.572C104.839 46.228 105.011 45.736 105.011 45.096V44.988C105.011 44.356 104.835 43.868 104.483 43.524C104.139 43.18 103.699 43.008 103.163 43.008C102.635 43.008 102.195 43.18 101.843 43.524C101.499 43.868 101.327 44.356 101.327 44.988V45.096C101.327 45.736 101.499 46.228 101.843 46.572C102.195 46.916 102.635 47.088 103.163 47.088ZM110.503 48.168C109.903 48.168 109.379 48.044 108.931 47.796C108.483 47.54 108.131 47.184 107.875 46.728C107.627 46.264 107.503 45.728 107.503 45.12V44.976C107.503 44.36 107.627 43.824 107.875 43.368C108.123 42.904 108.467 42.548 108.907 42.3C109.355 42.044 109.871 41.916 110.455 41.916C111.023 41.916 111.519 42.044 111.943 42.3C112.375 42.548 112.711 42.896 112.951 43.344C113.191 43.792 113.311 44.316 113.311 44.916V45.384H108.763C108.779 45.904 108.951 46.32 109.279 46.632C109.615 46.936 110.031 47.088 110.527 47.088C110.991 47.088 111.339 46.984 111.571 46.776C111.811 46.568 111.995 46.328 112.123 46.056L113.143 46.584C113.031 46.808 112.867 47.044 112.651 47.292C112.443 47.54 112.167 47.748 111.823 47.916C111.479 48.084 111.039 48.168 110.503 48.168ZM108.775 44.436H112.051C112.019 43.988 111.859 43.64 111.571 43.392C111.283 43.136 110.907 43.008 110.443 43.008C109.979 43.008 109.599 43.136 109.303 43.392C109.015 43.64 108.839 43.988 108.775 44.436ZM114.799 48V42.084H116.011V42.78H116.203C116.299 42.532 116.451 42.352 116.659 42.24C116.875 42.12 117.139 42.06 117.451 42.06H118.159V43.176H117.403C117.003 43.176 116.675 43.288 116.419 43.512C116.163 43.728 116.035 44.064 116.035 44.52V48H114.799Z"
        fill="#3B0E63" />
    <path d="M122.874 4.91333L123.992 10.5039" stroke="#FEC052" stroke-linecap="round" />
    <path d="M140.764 1L129.583 11.063" stroke="#FEC052" stroke-linecap="round" />
    <path d="M134.055 14.9763H143" stroke="#FEC052" stroke-linecap="round" />
    <path d="M21.126 82.6221L20.0079 77.0315" stroke="#FEC052" stroke-linecap="round" />
    <path d="M3.23626 86.5354L14.4174 76.4724" stroke="#FEC052" stroke-linecap="round" />
    <path d="M9.94482 72.5591L0.999943 72.5591" stroke="#FEC052" stroke-linecap="round" />
</svg>