<svg width="73" height="73" viewBox="0 0 73 73" fill="none" xmlns="http://www.w3.org/2000/svg">
    <path d="M0.223445 36.8176C0.0597682 17.2203 16.4438 0.135067 37.4435 0.707848C55.9471 1.20698 73.2313 16.7702 72.4129 38.4295C71.7337 56.5621 56.4217 73.6064 34.841 72.8945C16.4438 72.2808 0.190709 56.9385 0.223445 36.8176Z" fill="#662D91" />
    <path
        d="M51.1269 20.984C51.1269 21.0986 51.1187 21.205 51.1105 21.3114C50.9223 23.9789 48.6553 26.0245 45.9792 26.0245H34.1454C31.8458 26.0245 31.9112 28.6266 31.9112 28.6266L31.8376 31.8996V52.7243C31.8376 55.4 29.7916 57.6665 27.1237 57.8547C27.0173 57.8629 26.9109 57.8711 26.7964 57.8711C23.9157 57.9611 21.5587 55.6045 21.5587 52.7243V23.7743C21.5587 23.6843 21.5587 23.6025 21.5505 23.5125C21.5014 22.776 21.4441 18.6356 25.3151 16.3036C25.3151 16.3036 25.3233 16.2954 25.3314 16.2954C25.8634 15.9763 26.4608 15.8045 27.0746 15.7472C27.2055 15.739 27.3365 15.7308 27.4674 15.7308H46.2575C47.1659 15.7308 48.0088 16.0172 48.7044 16.5164C48.7044 16.5164 48.7126 16.5164 48.7126 16.5245C50.2021 17.4492 51.1923 19.1102 51.1269 20.984Z"
        fill="#FEC052" />
    <path d="M38.63 39.1248C40.8673 39.1248 42.681 37.1502 42.681 34.7144C42.681 32.2786 40.8673 30.304 38.63 30.304C36.3927 30.304 34.579 32.2786 34.579 34.7144C34.579 37.1502 36.3927 39.1248 38.63 39.1248Z" fill="#FEC052" />
</svg>