<svg width="514" height="201" viewBox="0 0 514 201" fill="none" xmlns="http://www.w3.org/2000/svg">
<path d="M24.672 134V73.904H23.136L12.096 96.56H1.44L16.32 66.8H34.752V134H24.672ZM72.6308 135.344C64.8228 135.344 58.5828 133.136 53.9108 128.72C49.3028 124.24 46.9988 117.52 46.9988 108.56V92.24C46.9988 83.472 49.3028 76.816 53.9108 72.272C58.5828 67.728 64.8228 65.456 72.6308 65.456C80.5028 65.456 86.7428 67.728 91.3508 72.272C96.0228 76.816 98.3588 83.472 98.3588 92.24V108.56C98.3588 117.52 96.0228 124.24 91.3508 128.72C86.7428 133.136 80.5028 135.344 72.6308 135.344ZM72.6308 126.32C77.9428 126.32 81.8788 124.816 84.4388 121.808C86.9988 118.736 88.2788 114.448 88.2788 108.944V91.664C88.2788 86.16 86.9028 81.936 84.1508 78.992C81.3988 75.984 77.5588 74.48 72.6308 74.48C67.6388 74.48 63.7988 76.016 61.1108 79.088C58.4228 82.096 57.0788 86.288 57.0788 91.664V108.944C57.0788 114.576 58.3588 118.896 60.9188 121.904C63.5428 124.848 67.4468 126.32 72.6308 126.32ZM117.13 135.248L110.986 130.256L163.498 65.552L169.642 70.544L117.13 135.248ZM158.698 135.056C153.962 135.056 150.218 133.744 147.466 131.12C144.714 128.432 143.338 124.816 143.338 120.272V119.696C143.338 115.088 144.714 111.472 147.466 108.848C150.218 106.16 153.962 104.816 158.698 104.816C163.37 104.816 167.114 106.16 169.93 108.848C172.746 111.472 174.154 115.088 174.154 119.696V120.272C174.154 124.816 172.746 128.432 169.93 131.12C167.178 133.744 163.434 135.056 158.698 135.056ZM158.698 128.336C161.002 128.336 162.794 127.632 164.074 126.224C165.418 124.816 166.09 122.96 166.09 120.656V119.312C166.09 116.944 165.418 115.056 164.074 113.648C162.794 112.24 161.002 111.536 158.698 111.536C156.458 111.536 154.666 112.24 153.322 113.648C152.042 115.056 151.402 116.944 151.402 119.312V120.656C151.402 122.96 152.042 124.816 153.322 126.224C154.666 127.632 156.458 128.336 158.698 128.336ZM121.93 95.984C117.194 95.984 113.418 94.672 110.602 92.048C107.85 89.36 106.474 85.744 106.474 81.2V80.528C106.474 75.92 107.85 72.304 110.602 69.68C113.418 67.056 117.194 65.744 121.93 65.744C126.602 65.744 130.314 67.056 133.066 69.68C135.882 72.304 137.29 75.92 137.29 80.528V81.2C137.29 85.744 135.914 89.36 133.162 92.048C130.41 94.672 126.666 95.984 121.93 95.984ZM121.93 89.264C124.17 89.264 125.93 88.56 127.21 87.152C128.554 85.68 129.226 83.792 129.226 81.488V80.144C129.226 77.84 128.554 75.984 127.21 74.576C125.93 73.168 124.17 72.464 121.93 72.464C119.626 72.464 117.802 73.168 116.458 74.576C115.178 75.984 114.538 77.84 114.538 80.144V81.488C114.538 83.792 115.178 85.68 116.458 87.152C117.802 88.56 119.626 89.264 121.93 89.264Z" fill="white"/>
<path d="M361.672 134V73.904H360.136L349.096 96.56H338.44L353.32 66.8H371.752V134H361.672ZM409.631 135.344C401.823 135.344 395.583 133.136 390.911 128.72C386.303 124.24 383.999 117.52 383.999 108.56V92.24C383.999 83.472 386.303 76.816 390.911 72.272C395.583 67.728 401.823 65.456 409.631 65.456C417.503 65.456 423.743 67.728 428.351 72.272C433.023 76.816 435.359 83.472 435.359 92.24V108.56C435.359 117.52 433.023 124.24 428.351 128.72C423.743 133.136 417.503 135.344 409.631 135.344ZM409.631 126.32C414.943 126.32 418.879 124.816 421.439 121.808C423.999 118.736 425.279 114.448 425.279 108.944V91.664C425.279 86.16 423.903 81.936 421.151 78.992C418.399 75.984 414.559 74.48 409.631 74.48C404.639 74.48 400.799 76.016 398.111 79.088C395.423 82.096 394.079 86.288 394.079 91.664V108.944C394.079 114.576 395.359 118.896 397.919 121.904C400.543 124.848 404.447 126.32 409.631 126.32ZM454.13 135.248L447.986 130.256L500.498 65.552L506.642 70.544L454.13 135.248ZM495.698 135.056C490.962 135.056 487.218 133.744 484.466 131.12C481.714 128.432 480.338 124.816 480.338 120.272V119.696C480.338 115.088 481.714 111.472 484.466 108.848C487.218 106.16 490.962 104.816 495.698 104.816C500.37 104.816 504.114 106.16 506.93 108.848C509.746 111.472 511.154 115.088 511.154 119.696V120.272C511.154 124.816 509.746 128.432 506.93 131.12C504.178 133.744 500.434 135.056 495.698 135.056ZM495.698 128.336C498.002 128.336 499.794 127.632 501.074 126.224C502.418 124.816 503.09 122.96 503.09 120.656V119.312C503.09 116.944 502.418 115.056 501.074 113.648C499.794 112.24 498.002 111.536 495.698 111.536C493.458 111.536 491.666 112.24 490.322 113.648C489.042 115.056 488.402 116.944 488.402 119.312V120.656C488.402 122.96 489.042 124.816 490.322 126.224C491.666 127.632 493.458 128.336 495.698 128.336ZM458.93 95.984C454.194 95.984 450.418 94.672 447.602 92.048C444.85 89.36 443.474 85.744 443.474 81.2V80.528C443.474 75.92 444.85 72.304 447.602 69.68C450.418 67.056 454.194 65.744 458.93 65.744C463.602 65.744 467.314 67.056 470.066 69.68C472.882 72.304 474.29 75.92 474.29 80.528V81.2C474.29 85.744 472.914 89.36 470.162 92.048C467.41 94.672 463.666 95.984 458.93 95.984ZM458.93 89.264C461.17 89.264 462.93 88.56 464.21 87.152C465.554 85.68 466.226 83.792 466.226 81.488V80.144C466.226 77.84 465.554 75.984 464.21 74.576C462.93 73.168 461.17 72.464 458.93 72.464C456.626 72.464 454.802 73.168 453.458 74.576C452.178 75.984 451.538 77.84 451.538 80.144V81.488C451.538 83.792 452.178 85.68 453.458 87.152C454.802 88.56 456.626 89.264 458.93 89.264Z" fill="white"/>
</svg>
