<svg width="144" height="88" viewBox="0 0 144 88" fill="none" xmlns="http://www.w3.org/2000/svg">
<path d="M132.316 24.1008C133.22 26.9234 132.525 30.1786 130.358 33.6969C128.193 37.2132 124.59 40.9325 119.805 44.6297C110.239 52.0213 96.0354 59.2559 79.4615 64.5611C62.8876 69.8663 47.1231 72.2243 35.0425 71.7618C29.0001 71.5304 23.9074 70.5943 20.1025 68.9891C16.2956 67.3829 13.8398 65.1362 12.9363 62.3135C12.0328 59.4908 12.7274 56.2356 14.8941 52.7174C17.0596 49.201 20.662 45.4817 25.447 41.7845C35.0134 34.3929 49.217 27.1584 65.7909 21.8531C82.3648 16.5479 98.1293 14.1899 110.21 14.6525C116.252 14.8838 121.345 15.8199 125.15 17.4252C128.957 19.0313 131.413 21.2781 132.316 24.1008Z" stroke="#FEC052"/>
<ellipse cx="72.1732" cy="43.9213" rx="63.1732" ry="22.9213" fill="#FEC052"/>
<path d="M122.874 4.91333L123.992 10.5039" stroke="#FEC052" stroke-linecap="round"/>
<path d="M140.764 1L129.583 11.063" stroke="#FEC052" stroke-linecap="round"/>
<path d="M134.055 14.9763H143" stroke="#FEC052" stroke-linecap="round"/>
<path d="M21.126 82.6221L20.0079 77.0315" stroke="#FEC052" stroke-linecap="round"/>
<path d="M3.23613 86.5354L14.4172 76.4724" stroke="#FEC052" stroke-linecap="round"/>
<path d="M9.94482 72.5591L0.999943 72.5591" stroke="#FEC052" stroke-linecap="round"/>
</svg>
