<svg width="52" height="52" viewBox="0 0 52 52" fill="none" xmlns="http://www.w3.org/2000/svg">
    <g filter="url(#filter0_i_309_3006)">
        <circle cx="25.9016" cy="25.9016" r="24.9016" fill="white" />
    </g>
    <circle cx="25.9016" cy="25.9016" r="24.9016" stroke="#E8E7F1" stroke-width="1.5" />
    <path
        d="M35.5337 20.98C35.5435 21.2 35.5435 21.41 35.5435 21.63C35.5532 28.3 30.6011 36 21.5451 36C18.8741 36 16.2518 35.21 14 33.73C14.3899 33.78 14.7799 33.8 15.1698 33.8C17.3826 33.8 19.537 33.04 21.2819 31.63C19.1763 31.59 17.3241 30.18 16.6807 28.12C17.4216 28.27 18.182 28.24 18.9033 28.03C16.6125 27.57 14.9651 25.5 14.9553 23.09C14.9553 23.07 14.9553 23.05 14.9553 23.03C15.6377 23.42 16.4078 23.64 17.1877 23.66C15.0333 22.18 14.3607 19.2299 15.6669 16.9199C18.1722 20.0799 21.857 21.99 25.8148 22.2C25.4151 20.45 25.961 18.6099 27.238 17.3699C29.2169 15.4599 32.3363 15.5599 34.208 17.5899C35.3095 17.3699 36.3721 16.9499 37.3371 16.3599C36.9667 17.5299 36.1966 18.5199 35.173 19.1499C36.1478 19.0299 37.1032 18.7599 38 18.3599C37.3371 19.3799 36.4988 20.2599 35.5337 20.98Z"
        fill="#646495" />
    <defs>
        <filter id="filter0_i_309_3006" x="-5.15242" y="-15.4661" width="56.7056" height="67.0194" filterUnits="userSpaceOnUse" color-interpolation-filters="sRGB">
            <feFlood flood-opacity="0" result="BackgroundImageFix" />
            <feBlend mode="normal" in="SourceGraphic" in2="BackgroundImageFix" result="shape" />
            <feColorMatrix in="SourceAlpha" type="matrix" values="0 0 0 0 0 0 0 0 0 0 0 0 0 0 0 0 0 0 127 0" result="hardAlpha" />
            <feMorphology radius="14.7339" operator="erode" in="SourceAlpha" result="effect1_innerShadow_309_3006" />
            <feOffset dx="-5.40242" dy="-15.7161" />
            <feGaussianBlur stdDeviation="9.82258" />
            <feComposite in2="hardAlpha" operator="arithmetic" k2="-1" k3="1" />
            <feColorMatrix type="matrix" values="0 0 0 0 1 0 0 0 0 1 0 0 0 0 1 0 0 0 1 0" />
            <feBlend mode="normal" in2="shape" result="effect1_innerShadow_309_3006" />
        </filter>
    </defs>
</svg>